<svg xmlns="http://www.w3.org/2000/svg" xmlns:svg="http://www.w3.org/2000/svg" id="svg2" width="512" height="512" version="1.1"><metadata id="metadata7"/><g id="layer1" transform="translate(0,-540.36218)"><path id="rect3773" fill="#000" fill-opacity="1" stroke="#fff" stroke-dashoffset="0" stroke-linecap="round" stroke-linejoin="round" stroke-miterlimit="4" stroke-opacity="1" stroke-width="3" d="m 266.88442,828.39033 41.12911,-57.27809 c 1.18559,-1.6511 2.14005,-1.4976 2.14005,0.34419 l 0,34.78839 c 0,1.84179 -0.95446,4.65376 -2.14005,6.30487 0,0 2.96234,52.54131 -41.12911,57.27808 -44.09145,4.73677 -3.46179,1.04166 -2.14005,-0.34421 0,0 16.38578,-11.41837 35.41684,-42.03522 19.03106,-30.61685 -34.46237,2.59308 -33.27679,0.94199 z"/><rect id="rect3001" width="83.085" height="55.409" x="388.376" y="1111.682" fill="#000" fill-opacity="1" stroke="#fff" stroke-dasharray="none" stroke-dashoffset="0" stroke-linecap="round" stroke-linejoin="round" stroke-miterlimit="4" stroke-opacity="1" stroke-width="3.7" rx="8.32" ry="8.571" transform="matrix(0.65755576,-0.75340588,0,1,0,0)"/><text id="text3823" x="141.632" y="870.381" fill="#000" fill-opacity="1" stroke="none" font-family="Times New Roman" font-size="161.423" font-stretch="normal" font-style="normal" font-variant="normal" font-weight="normal" letter-spacing="0" text-anchor="middle" word-spacing="0" xml:space="preserve" style="text-align:center;line-height:125%;-inkscape-font-specification:Times New Roman"><tspan id="tspan3825" x="141.632" y="870.381">CC</tspan></text><text font-stretch="normal" style="text-align:center;line-height:125%;-inkscape-font-specification:Times New Roman" id="text3827" x="439.63" y="870.381" fill="#000" fill-opacity="1" stroke="none" font-family="Times New Roman" font-size="161.423" font-style="normal" font-variant="normal" font-weight="normal" letter-spacing="0" text-anchor="middle" word-spacing="0" xml:space="preserve"><tspan id="tspan3829" x="439.63" y="870.381">N</tspan></text><path id="path3831" fill="#000" fill-opacity="1" stroke="#fff" stroke-dashoffset="0" stroke-linecap="round" stroke-linejoin="round" stroke-miterlimit="4" stroke-opacity="1" stroke-width="3" d="m 284.12042,1441.4296 24.38944,-57.6892 c 0.75652,-1.7895 1.59768,-1.6447 1.59768,0.2432 l 0,35.6591 c 0,1.8879 -0.71256,4.8191 -1.59768,6.5722 0,0 1.50908,40.7486 -29.53205,58.4925 -31.04115,17.7438 -2.22247,1.5804 -1.59769,-0.2433 l 14.1422,-41.2815 c 0.6248,-1.8238 -8.15842,0.037 -7.4019,-1.753 z"/><path id="path3833" fill="#000" fill-opacity="1" stroke="#fff" stroke-dashoffset="0" stroke-linecap="round" stroke-linejoin="round" stroke-miterlimit="4" stroke-opacity="1" stroke-width="3" d="m 265.75547,1442.3424 42.15845,-58.7116 c 1.21526,-1.6924 2.19361,-1.5351 2.19361,0.3528 l 0,35.6591 c 0,1.8879 -0.97835,4.7702 -2.19361,6.4626 0,0 -12.49502,40.3957 -42.15845,58.7116 -29.66342,18.316 -3.0549,1.4111 -2.19361,-0.3528 l 17.99917,-36.8639 c 0.86129,-1.764 -17.02081,-3.5654 -15.80556,-5.2578 z"/><rect id="rect3835" width="85.164" height="56.795" x="386.221" y="1723.777" fill="#000" fill-opacity="1" stroke="#fff" stroke-dasharray="none" stroke-dashoffset="0" stroke-linecap="round" stroke-linejoin="round" stroke-miterlimit="4" stroke-opacity="1" stroke-width="3.7" rx="8.32" ry="8.571" transform="matrix(0.65755576,-0.75340588,0,1,0,0)"/><path id="path3837" fill="#000" fill-opacity="1" stroke="#fff" stroke-dashoffset="0" stroke-linecap="round" stroke-linejoin="round" stroke-miterlimit="4" stroke-opacity="1" stroke-width="3" d="m 339.86594,1441.4296 -24.38945,-57.6892 c -0.75651,-1.7895 -1.59766,-1.6447 -1.59766,0.2432 l 0,35.6591 c 0,1.8879 0.71255,4.8191 1.59766,6.5722 0,0 -1.50907,40.7486 29.53207,58.4925 31.04114,17.7438 2.22245,1.5804 1.59768,-0.2433 l -14.1422,-41.2815 c -0.62479,-1.8238 8.15843,0.037 7.4019,-1.753 z"/><path id="path3839" fill="#000" fill-opacity="1" stroke="#fff" stroke-dashoffset="0" stroke-linecap="round" stroke-linejoin="round" stroke-miterlimit="4" stroke-opacity="1" stroke-width="3" d="m 358.23088,1442.3424 -42.15843,-58.7116 c -1.21527,-1.6924 -2.19362,-1.5351 -2.19362,0.3528 l 0,35.6591 c 0,1.8879 0.97835,4.7702 2.19362,6.4626 0,0 12.49501,40.3957 42.15843,58.7116 29.66343,18.316 3.0549,1.4111 2.19361,-0.3528 l -17.99916,-36.8639 c -0.86128,-1.764 17.02082,-3.5654 15.80555,-5.2578 z"/><rect id="rect3841" width="85.164" height="56.795" x="-562.727" y="1008.834" fill="#000" fill-opacity="1" stroke="#fff" stroke-dasharray="none" stroke-dashoffset="0" stroke-linecap="round" stroke-linejoin="round" stroke-miterlimit="4" stroke-opacity="1" stroke-width="3.7" rx="8.32" ry="8.571" transform="matrix(-0.65755576,-0.75340588,0,1,0,0)"/><text font-stretch="normal" style="text-align:center;line-height:125%;-inkscape-font-specification:FreeSerif" id="text3843" x="141.632" y="1482.533" fill="#000" fill-opacity="1" stroke="none" font-family="FreeSerif" font-size="161.423" font-style="normal" font-variant="normal" font-weight="normal" letter-spacing="0" text-anchor="middle" word-spacing="0" xml:space="preserve"><tspan id="tspan3845" x="141.632" y="1482.533">CC</tspan></text><text id="text3847" x="439.63" y="1482.533" fill="#000" fill-opacity="1" stroke="none" font-family="FreeSerif" font-size="161.423" font-stretch="normal" font-style="normal" font-variant="normal" font-weight="normal" letter-spacing="0" text-anchor="middle" word-spacing="0" xml:space="preserve" style="text-align:center;line-height:125%;-inkscape-font-specification:FreeSerif"><tspan id="tspan3849" x="439.63" y="1482.533">N</tspan></text><path id="path3851" fill="#000" fill-opacity="1" stroke="#fff" stroke-dashoffset="0" stroke-linecap="round" stroke-linejoin="round" stroke-miterlimit="4" stroke-opacity="1" stroke-width="3" d="M 353.67481,828.39033 312.5457,771.11224 c -1.18559,-1.6511 -2.14005,-1.4976 -2.14005,0.34419 l 0,34.78839 c 0,1.84179 0.95446,4.65376 2.14005,6.30487 0,0 -2.96234,52.54131 41.12911,57.27808 44.09145,4.73677 3.46179,1.04166 2.14005,-0.34421 0,0 -16.38578,-11.41837 -35.41684,-42.03522 -19.03106,-30.61685 34.46237,2.59308 33.27679,0.94199 z"/><rect id="rect3853" width="83.085" height="55.409" x="-555.36" y="400.665" fill="#000" fill-opacity="1" stroke="#fff" stroke-dasharray="none" stroke-dashoffset="0" stroke-linecap="round" stroke-linejoin="round" stroke-miterlimit="4" stroke-opacity="1" stroke-width="3.7" rx="8.32" ry="8.571" transform="matrix(-0.65755576,-0.75340588,0,1,0,0)"/></g></svg>